<?xml version="1.0" encoding="UTF-8" standalone="no"?>
<!-- Generator: Adobe Illustrator 26.2.1, SVG Export Plug-In . SVG Version: 6.00 Build 0)  -->

<svg
   version="1.1"
   id="Layer_1"
   x="0px"
   y="0px"
   viewBox="0 0 129.98255 77.770159"
   xml:space="preserve"
   sodipodi:docname="bike-jamboree-loader-bicycle.svg"
   inkscape:version="1.1.2 (0a00cf5339, 2022-02-04)"
   width="129.98254"
   height="77.770157"
   xmlns:inkscape="http://www.inkscape.org/namespaces/inkscape"
   xmlns:sodipodi="http://sodipodi.sourceforge.net/DTD/sodipodi-0.dtd"
   xmlns="http://www.w3.org/2000/svg"
   xmlns:svg="http://www.w3.org/2000/svg"><defs
   id="defs57">
	

		
		
		
		
		
		
		
		
		
		
		
		
		
		
		
		
		
		
		
		
		
		
		
	</defs><sodipodi:namedview
   id="namedview55"
   pagecolor="#ffffff"
   bordercolor="#666666"
   borderopacity="1.0"
   inkscape:pageshadow="2"
   inkscape:pageopacity="0.0"
   inkscape:pagecheckerboard="0"
   showgrid="false"
   inkscape:zoom="3.3508737"
   inkscape:cx="71.473897"
   inkscape:cy="71.921541"
   inkscape:window-width="1920"
   inkscape:window-height="1011"
   inkscape:window-x="0"
   inkscape:window-y="0"
   inkscape:window-maximized="1"
   inkscape:current-layer="Layer_1"
   fit-margin-top="0"
   fit-margin-left="0"
   fit-margin-right="0"
   fit-margin-bottom="0" />
<style
   type="text/css"
   id="style2">
	.st0{fill-rule:evenodd;clip-rule:evenodd;fill:#CA161A;}
</style>
<g
   id="g1723"
   transform="translate(-76.67,-78.639844)"><path
     class="st0"
     d="m 202.87,143.53 c 0.1,-0.06 0.18,-0.11 0.26,-0.17 0.07,-0.06 0.13,-0.13 0.18,-0.23 0.07,-0.14 0.08,-0.27 0.1,-0.52 0.01,-0.16 0.01,-0.27 0.01,-0.32 0.28,-0.54 0.54,-1.08 0.78,-1.63 0.03,-0.03 0.11,-0.07 0.19,-0.13 0.17,-0.14 0.31,-0.25 0.39,-0.45 0.03,-0.07 0.04,-0.14 0.04,-0.23 0,-0.08 0,-0.18 -0.02,-0.31 -0.01,-0.15 -0.02,-0.26 -0.04,-0.32 0.21,-0.56 0.39,-1.14 0.56,-1.71 0.02,-0.03 0.1,-0.08 0.18,-0.16 0.15,-0.16 0.27,-0.29 0.32,-0.5 0.04,-0.15 0.02,-0.28 -0.03,-0.53 -0.03,-0.15 -0.06,-0.26 -0.08,-0.31 0.13,-0.59 0.24,-1.18 0.34,-1.78 0.03,-0.04 0.09,-0.09 0.15,-0.17 0.07,-0.09 0.13,-0.17 0.17,-0.25 0.04,-0.08 0.07,-0.17 0.08,-0.28 0.02,-0.16 -0.02,-0.28 -0.1,-0.52 -0.05,-0.16 -0.09,-0.26 -0.12,-0.31 0.06,-0.6 0.09,-1.2 0.1,-1.81 0.02,-0.04 0.08,-0.1 0.13,-0.19 0.06,-0.1 0.1,-0.18 0.14,-0.27 0.04,-0.09 0.06,-0.18 0.05,-0.29 -0.01,-0.16 -0.06,-0.27 -0.18,-0.51 -0.07,-0.14 -0.12,-0.23 -0.15,-0.28 -0.02,-0.6 -0.07,-1.19 -0.13,-1.79 0.01,-0.04 0.06,-0.11 0.1,-0.21 0.08,-0.21 0.14,-0.37 0.12,-0.58 -0.01,-0.08 -0.03,-0.14 -0.07,-0.22 -0.04,-0.07 -0.09,-0.15 -0.17,-0.26 -0.09,-0.13 -0.15,-0.21 -0.19,-0.26 -0.1,-0.59 -0.22,-1.19 -0.36,-1.77 0.01,-0.04 0.05,-0.12 0.08,-0.22 0.05,-0.22 0.09,-0.39 0.03,-0.59 -0.04,-0.15 -0.12,-0.25 -0.29,-0.44 -0.1,-0.12 -0.18,-0.2 -0.23,-0.23 -0.18,-0.58 -0.37,-1.15 -0.59,-1.71 0.01,-0.05 0.03,-0.13 0.05,-0.22 0.01,-0.11 0.03,-0.21 0.03,-0.31 0,-0.1 -0.02,-0.19 -0.06,-0.29 -0.07,-0.14 -0.16,-0.23 -0.35,-0.4 -0.12,-0.1 -0.2,-0.17 -0.25,-0.2 -0.25,-0.55 -0.52,-1.08 -0.81,-1.62 0,-0.04 0.01,-0.13 0.01,-0.23 0,-0.22 -0.01,-0.4 -0.12,-0.58 -0.04,-0.07 -0.09,-0.12 -0.15,-0.17 -0.03,-0.03 -0.07,-0.05 -0.11,-0.08 -0.04,-0.03 -0.09,-0.06 -0.14,-0.09 -0.13,-0.08 -0.22,-0.14 -0.28,-0.16 -0.16,-0.25 -0.32,-0.5 -0.48,-0.74 -0.17,-0.26 -0.35,-0.51 -0.53,-0.76 -0.01,-0.04 0,-0.13 -0.01,-0.23 -0.02,-0.23 -0.06,-0.4 -0.19,-0.56 -0.1,-0.12 -0.21,-0.18 -0.44,-0.3 -0.14,-0.07 -0.24,-0.12 -0.29,-0.13 -0.38,-0.47 -0.78,-0.92 -1.19,-1.35 -0.01,-0.04 -0.02,-0.13 -0.04,-0.22 -0.06,-0.22 -0.11,-0.39 -0.26,-0.54 -0.11,-0.11 -0.23,-0.15 -0.48,-0.23 -0.15,-0.05 -0.25,-0.08 -0.3,-0.09 -0.44,-0.41 -0.89,-0.81 -1.36,-1.18 -0.02,-0.04 -0.03,-0.13 -0.08,-0.23 -0.09,-0.2 -0.16,-0.36 -0.33,-0.49 -0.13,-0.09 -0.25,-0.12 -0.5,-0.17 -0.08,-0.02 -0.15,-0.03 -0.2,-0.04 -0.05,-0.01 -0.09,-0.01 -0.12,-0.01 -0.49,-0.35 -0.99,-0.68 -1.5,-0.99 -0.02,-0.04 -0.05,-0.12 -0.1,-0.21 -0.06,-0.1 -0.11,-0.19 -0.17,-0.26 -0.06,-0.07 -0.13,-0.13 -0.22,-0.18 -0.14,-0.07 -0.26,-0.09 -0.52,-0.1 -0.16,-0.01 -0.26,-0.01 -0.32,-0.01 -0.53,-0.28 -1.06,-0.54 -1.6,-0.78 -0.03,-0.03 -0.07,-0.11 -0.13,-0.19 -0.14,-0.18 -0.25,-0.31 -0.44,-0.39 -0.04,-0.01 -0.07,-0.03 -0.11,-0.03 -0.04,-0.01 -0.07,-0.01 -0.12,-0.01 -0.08,0 -0.18,0 -0.31,0.02 -0.15,0.01 -0.26,0.02 -0.31,0.04 -0.56,-0.21 -1.12,-0.4 -1.69,-0.57 -0.03,-0.02 -0.08,-0.1 -0.16,-0.18 -0.16,-0.15 -0.29,-0.27 -0.49,-0.33 -0.15,-0.04 -0.28,-0.02 -0.53,0.03 -0.15,0.04 -0.26,0.06 -0.31,0.08 -0.58,-0.13 -1.17,-0.25 -1.76,-0.34 -0.04,-0.03 -0.09,-0.09 -0.17,-0.16 -0.09,-0.07 -0.17,-0.13 -0.25,-0.17 -0.08,-0.04 -0.17,-0.07 -0.28,-0.09 -0.15,-0.02 -0.28,0.02 -0.52,0.1 -0.15,0.05 -0.25,0.09 -0.3,0.12 -0.59,-0.06 -1.19,-0.09 -1.79,-0.1 -0.04,-0.02 -0.1,-0.08 -0.19,-0.13 -0.1,-0.06 -0.18,-0.11 -0.27,-0.14 -0.09,-0.04 -0.18,-0.06 -0.29,-0.05 -0.16,0.01 -0.27,0.06 -0.5,0.18 -0.14,0.07 -0.23,0.12 -0.28,0.16 -0.6,0.02 -1.19,0.07 -1.79,0.13 -0.04,-0.01 -0.11,-0.06 -0.21,-0.1 -0.21,-0.08 -0.37,-0.15 -0.58,-0.12 -0.08,0.01 -0.14,0.03 -0.22,0.07 -0.07,0.04 -0.15,0.09 -0.26,0.17 -0.13,0.09 -0.21,0.15 -0.25,0.19 -0.59,0.1 -1.17,0.22 -1.76,0.37 -0.04,-0.01 -0.12,-0.05 -0.22,-0.08 -0.21,-0.05 -0.38,-0.09 -0.59,-0.03 -0.15,0.04 -0.25,0.13 -0.44,0.29 -0.12,0.1 -0.2,0.18 -0.23,0.23 -0.4,0.13 -0.8,0.28 -1.19,0.42 l -0.36,-0.84 c 0.58,-3.63 0.63,-7.31 0.12,-10.94 -0.58,-4.16 -1.87,-8.14 -3.82,-11.86 0.1,-0.6 -0.15,-1.25 -0.66,-1.71 -0.33,0.73 -1.15,1.26 -2.11,1.26 -0.44,0 -0.86,-0.11 -1.21,-0.3 -0.05,0.13 -0.11,0.35 -0.11,0.62 l -1.66,0.65 -0.41,-0.98 -2.45,1.06 0.38,0.89 -1.17,0.46 0.72,1.88 1.23,-0.48 1.28,3.03 -8.07,3.12 -0.11,-0.31 -0.91,0.32 0.12,0.34 -16.82,6.51 -0.07,-0.21 -0.91,0.32 0.08,0.25 -9.41,3.64 c -0.15,-0.44 -2.3,-7.39 -3.9,-12.52 0.01,0 0.01,0 0.02,-0.01 l -0.49,-1.51 c -0.59,-1.91 -1.05,-3.38 -1.2,-3.83 0.27,-0.05 0.55,-0.1 0.84,-0.13 3.42,-0.39 5.98,0.74 6.29,-0.05 0.21,-0.52 -0.73,-1.47 -1.6,-2.02 -2.24,-1.43 -4.07,-0.3 -7.59,-0.3 -0.23,0 -0.46,-0.01 -0.69,-0.02 -0.17,0.11 -0.34,0.23 -0.52,0.36 -0.32,0.23 -0.65,0.49 -1.01,0.76 -0.36,0.27 -0.76,0.54 -1.21,0.76 -0.23,0.11 -0.46,0.21 -0.71,0.3 -0.24,0.09 -0.5,0.16 -0.76,0.22 -1.04,0.23 -2.08,0.18 -2.97,-0.06 -0.44,-0.12 -0.85,-0.28 -1.21,-0.47 -0.36,-0.18 -0.68,-0.39 -0.95,-0.6 -0.27,-0.21 -0.51,-0.42 -0.7,-0.61 -0.02,-0.02 -0.04,-0.04 -0.07,-0.07 0.04,2.01 2.6,4.12 5.09,4.52 2.21,0.35 3.25,-0.82 5.2,-1.76 1.19,3.77 5.43,17.44 5.78,18.46 l -0.4,0.44 c -0.34,0.21 -0.7,0.37 -1.06,0.43 -0.3,0.04 -0.51,0.02 -0.71,0 -0.19,-0.02 -0.4,-0.04 -0.64,0 -1.21,0.21 -2.18,1.68 -2.96,4.52 l 0.39,0.11 c 0.72,-2.64 1.61,-4.06 2.64,-4.23 0.19,-0.03 0.35,-0.02 0.53,0 0.22,0.02 0.47,0.05 0.81,0 0.12,-0.02 0.23,-0.07 0.35,-0.1 l -4.27,4.7 c -0.02,-0.01 -0.03,-0.01 -0.06,-0.02 -0.16,-0.04 -0.26,-0.06 -0.32,-0.06 -0.47,-0.37 -0.96,-0.72 -1.46,-1.06 -0.02,-0.04 -0.04,-0.12 -0.09,-0.21 -0.05,-0.1 -0.1,-0.19 -0.15,-0.27 -0.06,-0.08 -0.12,-0.15 -0.21,-0.2 -0.13,-0.08 -0.26,-0.1 -0.52,-0.12 -0.15,-0.02 -0.26,-0.02 -0.32,-0.02 -0.51,-0.3 -1.03,-0.58 -1.57,-0.85 -0.03,-0.03 -0.06,-0.11 -0.12,-0.2 -0.13,-0.18 -0.23,-0.32 -0.43,-0.41 -0.07,-0.03 -0.14,-0.05 -0.22,-0.06 -0.08,-0.01 -0.18,0 -0.31,0 -0.15,0.01 -0.26,0.01 -0.32,0.03 -0.55,-0.23 -1.11,-0.45 -1.68,-0.64 -0.03,-0.03 -0.07,-0.11 -0.15,-0.19 -0.15,-0.16 -0.28,-0.28 -0.48,-0.34 -0.15,-0.04 -0.28,-0.03 -0.53,0.01 -0.16,0.02 -0.26,0.05 -0.32,0.07 -0.58,-0.16 -1.16,-0.3 -1.75,-0.41 -0.04,-0.03 -0.09,-0.1 -0.16,-0.16 -0.09,-0.07 -0.16,-0.14 -0.24,-0.19 -0.08,-0.05 -0.17,-0.09 -0.27,-0.1 -0.15,-0.02 -0.28,0.01 -0.52,0.09 -0.15,0.05 -0.25,0.08 -0.3,0.11 -0.59,-0.08 -1.18,-0.14 -1.78,-0.18 -0.04,-0.02 -0.1,-0.08 -0.19,-0.14 -0.19,-0.12 -0.34,-0.21 -0.55,-0.21 -0.08,0 -0.15,0.01 -0.22,0.03 -0.04,0.01 -0.08,0.03 -0.13,0.04 -0.05,0.02 -0.1,0.04 -0.16,0.07 -0.14,0.07 -0.23,0.11 -0.28,0.15 -0.29,0 -0.58,0 -0.88,0.01 -0.31,0.01 -0.62,0.03 -0.92,0.05 -0.04,-0.02 -0.11,-0.07 -0.2,-0.11 -0.2,-0.1 -0.36,-0.16 -0.57,-0.14 -0.15,0.02 -0.27,0.08 -0.48,0.22 -0.14,0.08 -0.23,0.14 -0.27,0.18 -0.6,0.08 -1.19,0.17 -1.77,0.29 -0.04,-0.01 -0.12,-0.05 -0.21,-0.08 -0.21,-0.07 -0.38,-0.11 -0.59,-0.07 -0.15,0.03 -0.25,0.12 -0.45,0.28 -0.12,0.1 -0.2,0.17 -0.23,0.21 -0.58,0.15 -1.15,0.33 -1.72,0.52 -0.04,0 -0.13,-0.04 -0.23,-0.06 -0.22,-0.03 -0.39,-0.06 -0.59,0.02 -0.15,0.06 -0.24,0.15 -0.41,0.33 -0.06,0.06 -0.1,0.11 -0.14,0.16 -0.03,0.04 -0.05,0.07 -0.07,0.09 -0.56,0.23 -1.1,0.48 -1.64,0.75 -0.04,0 -0.13,-0.02 -0.22,-0.03 -0.11,-0.01 -0.21,-0.01 -0.31,0 -0.09,0.01 -0.18,0.04 -0.27,0.09 -0.14,0.08 -0.21,0.18 -0.36,0.39 -0.09,0.13 -0.15,0.22 -0.18,0.27 -0.51,0.3 -1.02,0.62 -1.51,0.95 -0.04,0.01 -0.13,0 -0.23,0.01 -0.22,0.02 -0.39,0.04 -0.57,0.17 -0.03,0.02 -0.06,0.05 -0.09,0.07 -0.03,0.03 -0.05,0.06 -0.07,0.09 -0.05,0.07 -0.09,0.15 -0.15,0.27 -0.07,0.14 -0.12,0.23 -0.14,0.29 -0.47,0.36 -0.93,0.75 -1.38,1.14 -0.03,0.02 -0.13,0.02 -0.24,0.04 -0.21,0.05 -0.38,0.1 -0.54,0.24 -0.11,0.11 -0.17,0.22 -0.26,0.46 -0.05,0.15 -0.09,0.25 -0.1,0.31 -0.42,0.43 -0.84,0.87 -1.23,1.32 -0.04,0.02 -0.13,0.03 -0.22,0.06 -0.11,0.04 -0.2,0.07 -0.28,0.12 -0.08,0.05 -0.15,0.11 -0.22,0.19 -0.1,0.12 -0.13,0.25 -0.19,0.5 -0.04,0.16 -0.06,0.26 -0.06,0.32 -0.37,0.48 -0.71,0.97 -1.05,1.47 -0.04,0.02 -0.12,0.04 -0.21,0.09 -0.1,0.05 -0.19,0.1 -0.26,0.16 -0.08,0.06 -0.15,0.12 -0.2,0.22 -0.08,0.14 -0.09,0.26 -0.12,0.52 -0.02,0.16 -0.02,0.26 -0.02,0.32 -0.3,0.52 -0.58,1.05 -0.85,1.6 -0.03,0.03 -0.11,0.06 -0.2,0.12 -0.18,0.13 -0.32,0.24 -0.41,0.43 -0.03,0.07 -0.05,0.14 -0.06,0.22 -0.01,0.08 0,0.18 0,0.31 0.01,0.16 0.01,0.26 0.03,0.32 -0.23,0.56 -0.44,1.12 -0.63,1.7 -0.03,0.03 -0.11,0.08 -0.18,0.15 -0.16,0.15 -0.28,0.28 -0.34,0.48 -0.04,0.15 -0.03,0.28 0.01,0.53 0.02,0.16 0.05,0.26 0.07,0.32 -0.16,0.58 -0.29,1.17 -0.41,1.77 -0.03,0.04 -0.09,0.09 -0.16,0.16 -0.14,0.17 -0.26,0.31 -0.28,0.52 -0.02,0.16 0.01,0.28 0.09,0.53 0.05,0.15 0.08,0.25 0.1,0.3 -0.08,0.6 -0.14,1.2 -0.17,1.8 -0.02,0.04 -0.08,0.1 -0.13,0.19 -0.12,0.19 -0.2,0.34 -0.21,0.56 0,0.08 0.01,0.15 0.03,0.23 0.01,0.04 0.03,0.08 0.04,0.13 0.02,0.05 0.04,0.1 0.07,0.16 0.07,0.14 0.11,0.24 0.15,0.29 0,0.29 0,0.58 0.01,0.88 0.01,0.31 0.02,0.62 0.04,0.92 -0.02,0.04 -0.07,0.11 -0.11,0.2 -0.1,0.2 -0.16,0.37 -0.14,0.58 0.02,0.16 0.08,0.27 0.21,0.49 0.08,0.14 0.14,0.23 0.18,0.27 0.08,0.6 0.17,1.2 0.29,1.79 -0.01,0.04 -0.05,0.12 -0.08,0.21 -0.06,0.21 -0.11,0.38 -0.07,0.59 0.03,0.15 0.11,0.26 0.28,0.45 0.1,0.12 0.17,0.2 0.21,0.24 0.15,0.59 0.33,1.17 0.52,1.73 0,0.04 -0.04,0.13 -0.06,0.23 -0.03,0.22 -0.06,0.39 0.02,0.59 0.06,0.15 0.15,0.24 0.33,0.42 0.06,0.06 0.11,0.11 0.15,0.14 0.04,0.03 0.07,0.06 0.09,0.07 0.23,0.56 0.47,1.11 0.74,1.65 0,0.05 -0.02,0.13 -0.03,0.23 -0.01,0.11 -0.01,0.21 0,0.31 0.01,0.1 0.04,0.18 0.09,0.28 0.08,0.14 0.18,0.22 0.38,0.37 0.13,0.09 0.21,0.15 0.27,0.18 0.3,0.53 0.61,1.04 0.95,1.54 0.01,0.04 0,0.13 0.01,0.23 0.02,0.22 0.04,0.4 0.16,0.57 0.04,0.06 0.1,0.11 0.16,0.16 0.07,0.05 0.15,0.09 0.27,0.15 0.14,0.07 0.23,0.12 0.29,0.14 0.36,0.48 0.74,0.94 1.13,1.4 0.02,0.03 0.02,0.13 0.04,0.24 0.05,0.22 0.1,0.39 0.24,0.54 0.11,0.11 0.22,0.17 0.46,0.26 0.15,0.05 0.25,0.09 0.31,0.1 0.42,0.43 0.86,0.84 1.31,1.24 0.02,0.04 0.03,0.13 0.06,0.22 0.04,0.11 0.07,0.2 0.12,0.28 0.05,0.08 0.11,0.16 0.19,0.22 0.12,0.1 0.24,0.13 0.49,0.19 0.16,0.04 0.26,0.06 0.32,0.06 0.47,0.37 0.96,0.72 1.46,1.06 0.02,0.04 0.04,0.12 0.09,0.21 0.05,0.1 0.1,0.19 0.15,0.27 0.06,0.08 0.12,0.15 0.21,0.2 0.13,0.08 0.26,0.1 0.52,0.12 0.15,0.02 0.26,0.02 0.32,0.02 0.51,0.3 1.03,0.58 1.57,0.85 0.03,0.03 0.06,0.11 0.12,0.2 0.13,0.18 0.23,0.32 0.43,0.41 0.07,0.03 0.14,0.05 0.22,0.06 0.08,0.01 0.18,0 0.31,0 0.15,-0.01 0.26,-0.01 0.32,-0.03 0.55,0.23 1.11,0.45 1.68,0.64 0.03,0.03 0.07,0.11 0.15,0.19 0.15,0.16 0.28,0.28 0.48,0.34 0.15,0.04 0.28,0.03 0.53,-0.01 0.16,-0.02 0.26,-0.05 0.32,-0.07 0.58,0.16 1.16,0.3 1.75,0.41 0.04,0.03 0.09,0.1 0.16,0.16 0.09,0.07 0.16,0.14 0.24,0.19 0.08,0.05 0.17,0.09 0.27,0.1 0.15,0.02 0.28,-0.01 0.52,-0.09 0.15,-0.05 0.25,-0.08 0.3,-0.11 0.59,0.08 1.18,0.14 1.78,0.18 0.04,0.02 0.1,0.08 0.19,0.14 0.19,0.12 0.34,0.21 0.55,0.21 0.08,0 0.15,-0.01 0.22,-0.03 0.04,-0.01 0.08,-0.03 0.13,-0.04 0.05,-0.02 0.1,-0.04 0.16,-0.07 0.14,-0.07 0.23,-0.11 0.28,-0.15 0.29,0 0.58,0 0.88,-0.01 0.31,-0.01 0.62,-0.03 0.92,-0.05 0.04,0.02 0.11,0.07 0.2,0.11 0.2,0.1 0.36,0.16 0.57,0.14 0.15,-0.02 0.27,-0.08 0.48,-0.22 0.14,-0.08 0.23,-0.14 0.27,-0.18 0.6,-0.08 1.19,-0.17 1.77,-0.29 0.04,0.01 0.12,0.05 0.21,0.08 0.21,0.07 0.38,0.11 0.59,0.07 0.15,-0.03 0.25,-0.11 0.45,-0.28 0.12,-0.1 0.2,-0.17 0.23,-0.21 0.58,-0.15 1.15,-0.33 1.72,-0.52 0.04,0 0.13,0.04 0.23,0.06 0.22,0.03 0.39,0.06 0.59,-0.02 0.15,-0.06 0.24,-0.15 0.41,-0.33 0.06,-0.06 0.1,-0.11 0.14,-0.16 0.03,-0.04 0.05,-0.07 0.07,-0.09 0.56,-0.23 1.1,-0.48 1.64,-0.75 0.04,0 0.13,0.02 0.22,0.03 0.11,0.01 0.21,0.01 0.31,0 0.09,-0.01 0.18,-0.04 0.27,-0.09 0.14,-0.08 0.21,-0.18 0.36,-0.39 0.09,-0.13 0.15,-0.22 0.18,-0.27 0.51,-0.3 1.02,-0.62 1.51,-0.95 0.04,-0.01 0.13,0 0.23,-0.01 0.22,-0.02 0.39,-0.04 0.57,-0.17 0.03,-0.02 0.06,-0.05 0.09,-0.07 0.03,-0.03 0.05,-0.06 0.07,-0.09 0.05,-0.07 0.09,-0.15 0.15,-0.27 0.07,-0.14 0.12,-0.23 0.14,-0.29 0.47,-0.36 0.93,-0.75 1.38,-1.14 0.03,-0.02 0.13,-0.02 0.24,-0.04 0.21,-0.05 0.38,-0.1 0.54,-0.24 0.11,-0.11 0.17,-0.22 0.26,-0.46 0.05,-0.15 0.09,-0.25 0.1,-0.31 0.43,-0.43 0.84,-0.87 1.23,-1.32 0.04,-0.02 0.13,-0.03 0.22,-0.06 0.11,-0.04 0.2,-0.07 0.28,-0.12 0.08,-0.05 0.15,-0.11 0.22,-0.19 0.1,-0.12 0.13,-0.25 0.19,-0.5 0.04,-0.16 0.06,-0.26 0.06,-0.32 0.37,-0.48 0.71,-0.97 1.05,-1.47 0.04,-0.02 0.12,-0.04 0.21,-0.09 0.1,-0.05 0.19,-0.1 0.26,-0.16 0.08,-0.06 0.15,-0.12 0.2,-0.22 0.08,-0.14 0.09,-0.26 0.12,-0.52 0.02,-0.16 0.02,-0.26 0.02,-0.32 0.3,-0.52 0.58,-1.05 0.85,-1.6 0.03,-0.03 0.11,-0.06 0.2,-0.12 0.18,-0.13 0.32,-0.24 0.41,-0.43 0.03,-0.07 0.05,-0.14 0.06,-0.22 0.01,-0.08 0,-0.18 0,-0.31 -0.01,-0.16 -0.01,-0.26 -0.03,-0.32 0.23,-0.56 0.44,-1.12 0.63,-1.7 0.03,-0.03 0.11,-0.08 0.18,-0.15 0.16,-0.15 0.28,-0.28 0.34,-0.48 0.01,-0.04 0.01,-0.08 0.01,-0.11 0.06,0.04 0.14,0.07 0.22,0.07 0.14,0.01 0.28,-0.04 0.38,-0.13 l 1.08,0.09 c 0.08,0.09 0.19,0.15 0.32,0.16 0.12,0.01 0.22,-0.03 0.31,-0.09 l 0.63,0.02 c 0.08,0.1 0.21,0.17 0.34,0.18 0.13,0.01 0.24,-0.03 0.34,-0.1 0.03,0 0.08,0.01 0.17,0.02 0.12,0.01 0.28,0.03 0.43,0.04 0.16,0.02 0.31,0.03 0.43,0.04 0.05,0 0.08,0.01 0.11,0.01 0.08,0.09 0.19,0.15 0.32,0.17 0.14,0.01 0.28,-0.03 0.38,-0.12 l 0.64,0.03 c 0.08,0.14 0.21,0.25 0.38,0.27 0.06,0.01 0.11,0 0.16,-0.01 l -0.26,2.43 h -3 c -0.26,0 -0.47,0.18 -0.47,0.4 v 2.3 c 0,0.22 0.21,0.4 0.47,0.4 l 7.15,-0.01 c 0.26,0 0.47,-0.18 0.47,-0.4 v -2.3 c 0,-0.22 -0.21,-0.4 -0.47,-0.4 h -2.52 l 0.25,-2.36 c 0.02,0 0.05,0.01 0.07,0.01 0.07,0 0.14,-0.02 0.21,-0.05 0.06,-0.03 0.11,-0.07 0.16,-0.12 0.09,0 0.19,-0.01 0.3,-0.01 0.13,-0.01 0.25,-0.01 0.36,-0.02 0.1,0.05 0.22,0.09 0.34,0.06 0.13,-0.03 0.24,-0.1 0.32,-0.2 0.01,0 0.01,0 0.03,-0.01 0.04,-0.01 0.09,-0.02 0.15,-0.04 0.06,-0.02 0.13,-0.03 0.21,-0.05 0.04,-0.01 0.08,-0.02 0.12,-0.03 0.04,-0.01 0.08,-0.02 0.12,-0.04 0.08,-0.02 0.16,-0.05 0.23,-0.07 0.07,-0.03 0.14,-0.05 0.2,-0.07 0.05,-0.02 0.08,-0.03 0.11,-0.04 0.05,0.02 0.11,0.04 0.16,0.04 0.07,0 0.14,-0.02 0.21,-0.05 0.07,-0.03 0.13,-0.07 0.18,-0.12 0.04,-0.04 0.06,-0.09 0.08,-0.13 l 0.06,-0.03 c 0,0 0,0 0,0 0,0 0.03,-0.02 0.08,-0.04 0.02,-0.01 0.05,-0.02 0.08,-0.04 0.03,-0.01 0.06,-0.03 0.09,-0.05 0.06,-0.03 0.12,-0.07 0.16,-0.09 0.02,-0.01 0.04,-0.02 0.05,-0.03 0.01,-0.01 0.02,-0.01 0.02,-0.01 0,0 -0.01,0 -0.01,-0.01 l 0.03,-0.02 c 0.07,0.02 0.13,0.02 0.2,0.01 0.03,-0.01 0.07,-0.01 0.1,-0.03 0.03,-0.01 0.07,-0.03 0.1,-0.05 0.06,-0.04 0.12,-0.09 0.16,-0.15 0.04,-0.06 0.07,-0.12 0.08,-0.19 0,0 0,0 0,-0.01 0.03,-0.02 0.05,-0.03 0.08,-0.06 0.05,-0.04 0.11,-0.08 0.17,-0.13 0.03,-0.02 0.06,-0.05 0.1,-0.07 0.03,-0.03 0.06,-0.05 0.1,-0.08 0.03,-0.03 0.06,-0.05 0.1,-0.08 0.03,-0.03 0.06,-0.05 0.09,-0.08 0.06,-0.05 0.11,-0.1 0.16,-0.14 0.04,-0.03 0.06,-0.06 0.09,-0.08 0.05,0 0.11,-0.01 0.16,-0.03 0.03,-0.01 0.06,-0.03 0.09,-0.05 0.03,-0.02 0.06,-0.05 0.08,-0.07 0.1,-0.1 0.14,-0.22 0.14,-0.35 l 0.43,-0.53 v -0.01 c 0.05,-0.02 0.1,-0.03 0.14,-0.06 0.06,-0.04 0.11,-0.09 0.15,-0.16 0.04,-0.07 0.07,-0.14 0.08,-0.21 0.01,-0.06 0,-0.11 -0.01,-0.17 0.04,-0.06 0.17,-0.31 0.29,-0.57 0.03,-0.08 0.07,-0.15 0.1,-0.23 0.03,-0.07 0.06,-0.14 0.08,-0.2 0.02,-0.05 0.03,-0.08 0.04,-0.11 0.11,-0.06 0.2,-0.16 0.24,-0.29 0.04,-0.13 0.02,-0.26 -0.02,-0.37 v -0.01 l 0.01,-0.06 c 0,0 0,0 0,0 0,0 0.01,-0.03 0.02,-0.08 0.01,-0.05 0.03,-0.12 0.04,-0.19 0.01,-0.07 0.03,-0.14 0.04,-0.18 0.01,-0.05 0.02,-0.08 0.02,-0.08 l 0.02,-0.15 c 0.11,-0.08 0.19,-0.2 0.22,-0.35 0.01,-0.08 0.01,-0.15 -0.01,-0.22 -0.02,-0.07 -0.05,-0.13 -0.09,-0.19 0,0 0,0 0,0 0,-0.03 0.01,-0.06 0.01,-0.1 0,-0.03 0.01,-0.07 0.01,-0.1 0,-0.04 0.01,-0.07 0.01,-0.11 0.01,-0.08 0.01,-0.16 0.01,-0.25 0.01,-0.08 0.01,-0.17 0.01,-0.25 0,-0.08 0,-0.15 0,-0.22 0,-0.05 0,-0.09 0,-0.12 0.03,-0.04 0.07,-0.09 0.08,-0.14 0.02,-0.07 0.03,-0.14 0.03,-0.22 -0.01,-0.08 -0.03,-0.15 -0.06,-0.21 -0.03,-0.05 -0.07,-0.1 -0.11,-0.14 l -0.01,-0.06 c 0,0 0,-0.01 0,-0.02 0,-0.02 0,-0.04 -0.01,-0.06 -0.01,-0.05 -0.02,-0.12 -0.03,-0.19 -0.01,-0.07 -0.02,-0.14 -0.03,-0.19 -0.01,-0.05 -0.02,-0.08 -0.02,-0.08 l -0.01,-0.03 c 0.03,-0.06 0.06,-0.12 0.07,-0.19 0.01,-0.07 0.01,-0.15 -0.01,-0.22 -0.02,-0.07 -0.05,-0.14 -0.1,-0.2 -0.04,-0.05 -0.08,-0.08 -0.13,-0.11 -0.02,-0.07 -0.1,-0.34 -0.22,-0.61 -0.03,-0.08 -0.07,-0.16 -0.1,-0.23 -0.03,-0.07 -0.06,-0.14 -0.09,-0.2 -0.02,-0.05 -0.04,-0.08 -0.05,-0.11 0.01,-0.05 0.02,-0.11 0.02,-0.17 -0.01,-0.07 -0.03,-0.14 -0.07,-0.21 -0.04,-0.07 -0.09,-0.12 -0.14,-0.17 -0.05,-0.04 -0.1,-0.06 -0.16,-0.08 l -0.02,-0.05 c 0,0 -0.02,-0.03 -0.05,-0.07 -0.03,-0.04 -0.06,-0.1 -0.1,-0.16 -0.04,-0.06 -0.08,-0.11 -0.11,-0.16 -0.03,-0.04 -0.05,-0.07 -0.05,-0.07 l -0.02,-0.02 c 0.01,-0.07 0,-0.13 -0.01,-0.2 -0.02,-0.07 -0.05,-0.13 -0.1,-0.19 -0.09,-0.12 -0.23,-0.19 -0.36,-0.2 0,0 0,0 -0.01,0 -0.02,-0.02 -0.04,-0.05 -0.07,-0.08 -0.08,-0.09 -0.2,-0.21 -0.32,-0.33 -0.12,-0.12 -0.24,-0.23 -0.33,-0.32 -0.04,-0.03 -0.07,-0.06 -0.09,-0.08 -0.02,-0.12 -0.08,-0.24 -0.19,-0.33 -0.06,-0.05 -0.13,-0.08 -0.2,-0.1 -0.06,-0.02 -0.13,-0.02 -0.19,-0.01 l -0.03,-0.03 c 0,0 -0.03,-0.02 -0.07,-0.05 -0.04,-0.03 -0.1,-0.07 -0.16,-0.11 -0.12,-0.07 -0.23,-0.14 -0.23,-0.14 l -0.03,-0.01 c -0.04,-0.13 -0.13,-0.24 -0.26,-0.31 -0.03,-0.02 -0.07,-0.03 -0.1,-0.04 -0.04,-0.01 -0.07,-0.01 -0.11,-0.02 -0.06,0 -0.11,0.01 -0.17,0.02 -0.01,0 -0.01,0 -0.02,-0.01 -0.03,-0.02 -0.08,-0.04 -0.14,-0.06 -0.06,-0.02 -0.13,-0.05 -0.2,-0.08 -0.04,-0.01 -0.07,-0.03 -0.11,-0.05 -0.04,-0.01 -0.08,-0.03 -0.12,-0.04 -0.08,-0.03 -0.16,-0.06 -0.23,-0.08 -0.07,-0.02 -0.14,-0.04 -0.2,-0.06 -0.05,-0.01 -0.08,-0.03 -0.12,-0.03 -0.07,-0.1 -0.17,-0.18 -0.31,-0.22 -0.07,-0.02 -0.15,-0.02 -0.22,0 -0.02,0 -0.03,0.01 -0.05,0.02 l 0.3,-2.85 h 3 c 0.26,0 0.47,-0.18 0.47,-0.4 v -2.3 c 0,-0.22 -0.21,-0.4 -0.47,-0.4 h -7.15 c -0.26,0 -0.47,0.18 -0.47,0.4 v 2.3 c 0,0.22 0.21,0.4 0.47,0.4 h 2.53 l -0.29,2.73 c -0.03,0 -0.05,0 -0.08,0 -0.06,0 -0.13,-0.01 -0.21,-0.01 -0.08,0 -0.16,-0.01 -0.24,-0.01 -0.08,0 -0.16,0 -0.24,0 -0.08,0 -0.15,0 -0.21,0 -0.05,0 -0.09,0 -0.12,0 -0.04,-0.03 -0.09,-0.07 -0.14,-0.08 -0.07,-0.02 -0.14,-0.03 -0.21,-0.03 -0.07,0.01 -0.14,0.03 -0.21,0.06 -0.04,0.02 -0.08,0.06 -0.12,0.1 -0.13,0.02 -0.27,0.05 -0.34,0.06 -0.06,0.01 -0.19,0.03 -0.31,0.04 -0.11,-0.07 -0.23,-0.1 -0.37,-0.07 -0.13,0.03 -0.23,0.1 -0.31,0.2 -0.07,0.01 -0.32,0.07 -0.59,0.12 -0.15,0.03 -0.31,0.06 -0.42,0.08 -0.05,0.01 -0.08,0.01 -0.11,0.02 -0.1,-0.06 -0.22,-0.09 -0.35,-0.07 -0.12,0.02 -0.21,0.08 -0.29,0.17 -0.12,0.02 -0.26,0.05 -0.32,0.06 -0.06,0.01 -0.16,0.03 -0.27,0.06 -0.11,-0.09 -0.24,-0.13 -0.39,-0.11 -0.14,0.02 -0.26,0.1 -0.34,0.2 -0.03,0 -0.06,0.01 -0.1,0.01 -0.12,0.01 -0.27,0.04 -0.43,0.05 -0.22,0.03 -0.43,0.05 -0.54,0.06 -0.1,-0.07 -0.22,-0.11 -0.34,-0.09 -0.13,0.01 -0.24,0.08 -0.32,0.17 l -0.57,0.06 -0.03,0.01 c -0.13,-0.49 -0.27,-0.98 -0.43,-1.45 0,-0.04 0.04,-0.13 0.06,-0.23 0.03,-0.22 0.06,-0.39 -0.02,-0.59 -0.06,-0.15 -0.14,-0.24 -0.33,-0.42 -0.06,-0.06 -0.11,-0.11 -0.15,-0.14 -0.04,-0.03 -0.07,-0.06 -0.09,-0.07 -0.23,-0.56 -0.47,-1.11 -0.74,-1.65 0,-0.05 0.02,-0.13 0.03,-0.23 0.01,-0.11 0.01,-0.21 0,-0.31 -0.01,-0.1 -0.04,-0.18 -0.09,-0.28 -0.08,-0.14 -0.18,-0.22 -0.38,-0.37 -0.13,-0.09 -0.22,-0.15 -0.27,-0.18 -0.3,-0.53 -0.61,-1.04 -0.95,-1.54 -0.01,-0.04 0,-0.13 -0.01,-0.23 -0.02,-0.22 -0.04,-0.4 -0.16,-0.57 -0.04,-0.06 -0.1,-0.11 -0.16,-0.16 -0.07,-0.05 -0.15,-0.09 -0.27,-0.15 -0.14,-0.07 -0.23,-0.12 -0.29,-0.14 -0.36,-0.48 -0.74,-0.94 -1.13,-1.4 -0.02,-0.03 -0.02,-0.13 -0.04,-0.24 -0.05,-0.22 -0.1,-0.39 -0.24,-0.54 -0.11,-0.11 -0.22,-0.17 -0.46,-0.26 -0.15,-0.05 -0.25,-0.09 -0.31,-0.1 -0.12,-0.12 -0.24,-0.23 -0.36,-0.34 l 4.5,-4.95 c 1.78,5.25 3.56,10.5 5.35,15.75 0.88,-0.17 1.75,-0.35 2.63,-0.52 l -5.51,-16.24 32.09,-12.55 c -6.69,9.84 -13.38,19.69 -20.08,29.53 0.49,0.27 1.1,0.65 1.71,1.19 0.56,0.49 1,0.99 1.31,1.41 0.03,-0.04 0.71,-0.98 1.22,-1.72 0.31,-0.45 0.63,-0.93 0.63,-0.93 0.03,-0.04 0.05,-0.07 0.06,-0.09 0.53,-0.79 5.96,-8.78 20,-29.43 l 5.85,13.81 c -0.35,0.17 -0.71,0.34 -1.05,0.54 -0.04,0 -0.13,-0.01 -0.23,-0.01 -0.22,0 -0.4,0.01 -0.58,0.12 -0.07,0.04 -0.12,0.09 -0.17,0.15 -0.03,0.03 -0.05,0.07 -0.08,0.11 -0.03,0.04 -0.06,0.09 -0.09,0.15 -0.08,0.13 -0.14,0.22 -0.16,0.28 -0.24,0.16 -0.49,0.32 -0.73,0.48 -0.25,0.17 -0.5,0.35 -0.75,0.53 -0.04,0.01 -0.13,0 -0.23,0.01 -0.22,0.02 -0.39,0.06 -0.56,0.19 -0.12,0.1 -0.18,0.21 -0.29,0.44 -0.07,0.14 -0.11,0.24 -0.13,0.3 -0.46,0.39 -0.91,0.79 -1.34,1.2 -0.04,0.01 -0.13,0.02 -0.22,0.04 -0.21,0.06 -0.38,0.11 -0.53,0.26 -0.11,0.11 -0.15,0.23 -0.23,0.48 -0.05,0.15 -0.08,0.25 -0.08,0.31 -0.41,0.44 -0.8,0.9 -1.17,1.37 -0.04,0.02 -0.13,0.03 -0.22,0.08 -0.2,0.09 -0.36,0.16 -0.48,0.34 -0.09,0.13 -0.12,0.25 -0.17,0.5 -0.02,0.08 -0.03,0.15 -0.04,0.21 -0.01,0.05 -0.01,0.09 -0.01,0.12 -0.35,0.5 -0.68,1 -0.98,1.52 -0.04,0.02 -0.12,0.05 -0.2,0.1 -0.1,0.06 -0.18,0.11 -0.26,0.17 -0.07,0.06 -0.13,0.13 -0.18,0.23 -0.07,0.14 -0.08,0.27 -0.1,0.52 -0.01,0.16 -0.01,0.27 -0.01,0.32 -0.28,0.54 -0.54,1.08 -0.78,1.63 -0.03,0.03 -0.11,0.07 -0.19,0.13 -0.17,0.14 -0.31,0.25 -0.39,0.45 -0.03,0.07 -0.04,0.14 -0.04,0.23 0,0.08 0,0.18 0.02,0.31 0.01,0.15 0.02,0.26 0.04,0.32 -0.21,0.56 -0.39,1.14 -0.56,1.71 -0.02,0.03 -0.1,0.08 -0.18,0.16 -0.15,0.16 -0.27,0.29 -0.32,0.5 -0.04,0.15 -0.02,0.28 0.03,0.53 0.03,0.15 0.06,0.26 0.08,0.31 -0.13,0.59 -0.24,1.18 -0.34,1.78 -0.03,0.04 -0.09,0.09 -0.15,0.17 -0.07,0.09 -0.13,0.17 -0.17,0.25 -0.04,0.08 -0.07,0.17 -0.08,0.28 -0.02,0.16 0.02,0.28 0.1,0.52 0.05,0.16 0.09,0.26 0.12,0.31 -0.06,0.6 -0.09,1.2 -0.1,1.81 -0.02,0.04 -0.08,0.1 -0.13,0.19 -0.06,0.1 -0.1,0.18 -0.14,0.27 -0.04,0.09 -0.06,0.18 -0.05,0.29 0.01,0.16 0.06,0.27 0.18,0.51 0.07,0.14 0.12,0.23 0.15,0.28 0.02,0.6 0.07,1.19 0.13,1.79 -0.01,0.04 -0.06,0.11 -0.1,0.21 -0.08,0.21 -0.14,0.37 -0.12,0.58 0.01,0.08 0.03,0.14 0.07,0.22 0.04,0.07 0.09,0.15 0.17,0.26 0.09,0.13 0.15,0.21 0.19,0.26 0.1,0.59 0.22,1.19 0.36,1.77 -0.01,0.04 -0.05,0.12 -0.08,0.22 -0.05,0.22 -0.09,0.39 -0.03,0.59 0.04,0.15 0.12,0.25 0.29,0.44 0.1,0.12 0.18,0.2 0.23,0.23 0.18,0.58 0.37,1.15 0.59,1.71 0,0.05 -0.03,0.13 -0.05,0.22 -0.01,0.11 -0.03,0.21 -0.03,0.31 0,0.1 0.02,0.19 0.06,0.29 0.07,0.14 0.16,0.23 0.35,0.4 0.12,0.1 0.2,0.17 0.25,0.2 0.25,0.55 0.52,1.08 0.81,1.62 0,0.04 -0.01,0.13 -0.01,0.23 0,0.22 0.01,0.4 0.12,0.58 0.04,0.07 0.09,0.12 0.15,0.17 0.03,0.03 0.07,0.05 0.11,0.08 0.04,0.03 0.09,0.06 0.14,0.09 0.13,0.08 0.22,0.14 0.28,0.16 0.16,0.25 0.32,0.5 0.48,0.74 0.17,0.26 0.35,0.51 0.53,0.76 0.01,0.04 0,0.13 0.01,0.23 0.02,0.23 0.06,0.4 0.19,0.56 0.1,0.12 0.21,0.18 0.44,0.3 0.14,0.07 0.24,0.12 0.29,0.13 0.38,0.47 0.78,0.92 1.19,1.35 0.01,0.04 0.02,0.13 0.04,0.22 0.06,0.22 0.11,0.39 0.26,0.54 0.11,0.11 0.23,0.15 0.48,0.23 0.15,0.05 0.25,0.08 0.3,0.09 0.44,0.41 0.89,0.81 1.36,1.18 0.02,0.04 0.03,0.13 0.08,0.23 0.09,0.2 0.16,0.36 0.33,0.49 0.13,0.09 0.25,0.12 0.5,0.17 0.08,0.02 0.15,0.03 0.2,0.04 0.05,0.01 0.09,0.01 0.12,0.01 0.49,0.35 0.99,0.68 1.5,0.99 0.02,0.04 0.05,0.12 0.1,0.21 0.06,0.1 0.11,0.18 0.17,0.26 0.06,0.07 0.13,0.13 0.22,0.18 0.14,0.07 0.26,0.09 0.52,0.1 0.16,0.01 0.26,0.01 0.32,0.01 0.53,0.28 1.06,0.54 1.6,0.78 0.03,0.03 0.07,0.11 0.13,0.19 0.14,0.18 0.25,0.31 0.44,0.39 0.04,0.01 0.07,0.03 0.11,0.03 0.04,0.01 0.07,0.01 0.12,0.01 0.08,0 0.18,0 0.31,-0.02 0.15,-0.01 0.26,-0.02 0.31,-0.04 0.56,0.21 1.12,0.4 1.69,0.57 0.03,0.02 0.08,0.1 0.16,0.18 0.16,0.15 0.29,0.27 0.49,0.33 0.15,0.04 0.28,0.02 0.53,-0.03 0.15,-0.04 0.26,-0.06 0.31,-0.08 0.58,0.13 1.17,0.25 1.76,0.34 0.04,0.03 0.09,0.09 0.17,0.16 0.09,0.07 0.17,0.13 0.25,0.17 0.08,0.04 0.17,0.07 0.28,0.09 0.15,0.02 0.28,-0.02 0.52,-0.1 0.15,-0.05 0.25,-0.09 0.3,-0.12 0.59,0.06 1.19,0.09 1.79,0.1 0.04,0.02 0.1,0.08 0.19,0.13 0.1,0.06 0.18,0.11 0.27,0.14 0.09,0.04 0.18,0.06 0.29,0.05 0.16,-0.01 0.27,-0.06 0.5,-0.18 0.14,-0.07 0.23,-0.12 0.28,-0.16 0.6,-0.02 1.19,-0.07 1.79,-0.13 0.04,0.01 0.11,0.06 0.21,0.1 0.21,0.08 0.37,0.15 0.58,0.12 0.08,-0.01 0.14,-0.03 0.22,-0.07 0.07,-0.04 0.15,-0.09 0.26,-0.17 0.13,-0.09 0.21,-0.15 0.25,-0.19 0.59,-0.1 1.17,-0.22 1.76,-0.37 0.04,0.01 0.12,0.05 0.22,0.08 0.21,0.05 0.38,0.09 0.59,0.03 0.15,-0.04 0.25,-0.13 0.44,-0.29 0.12,-0.1 0.2,-0.18 0.23,-0.23 0.57,-0.18 1.13,-0.38 1.7,-0.6 0.04,0.01 0.12,0.03 0.22,0.05 0.22,0.03 0.4,0.05 0.59,-0.04 0.14,-0.07 0.23,-0.16 0.39,-0.36 0.1,-0.12 0.17,-0.2 0.2,-0.25 0.54,-0.25 1.07,-0.52 1.6,-0.82 0.04,0 0.13,0.01 0.23,0.01 0.22,0 0.4,-0.01 0.58,-0.12 0.07,-0.04 0.12,-0.09 0.17,-0.15 0.03,-0.03 0.05,-0.07 0.08,-0.11 0.03,-0.04 0.06,-0.09 0.09,-0.15 0.08,-0.13 0.14,-0.22 0.16,-0.28 0.24,-0.16 0.49,-0.32 0.73,-0.48 0.25,-0.17 0.5,-0.35 0.75,-0.53 0.04,-0.01 0.13,0 0.23,-0.01 0.22,-0.02 0.39,-0.06 0.56,-0.19 0.12,-0.1 0.18,-0.21 0.29,-0.44 0.07,-0.14 0.11,-0.24 0.13,-0.3 0.46,-0.39 0.91,-0.79 1.34,-1.2 0.04,-0.01 0.13,-0.02 0.22,-0.04 0.21,-0.06 0.38,-0.11 0.53,-0.26 0.11,-0.11 0.15,-0.23 0.23,-0.48 0.05,-0.15 0.08,-0.25 0.08,-0.31 0.41,-0.44 0.8,-0.9 1.17,-1.37 0.04,-0.02 0.13,-0.03 0.22,-0.08 0.2,-0.09 0.36,-0.16 0.48,-0.34 0.09,-0.13 0.12,-0.25 0.17,-0.5 0.02,-0.08 0.03,-0.15 0.04,-0.21 0.01,-0.05 0.01,-0.09 0.01,-0.12 0.35,-0.5 0.68,-1 0.98,-1.52 0.12,0.02 0.2,0 0.28,-0.05 z m -68.98,-7.3 c -0.15,-0.04 -0.31,-0.08 -0.46,-0.13 -1.22,-0.42 -2.21,-1.21 -2.9,-2.2 0.16,-0.05 2.49,-1.1 3.52,-0.66 0.05,0.02 0.1,0.07 0.14,0.1 z m -1.52,-6.1 c -0.1,1.04 -2.13,2.56 -2.38,2.8 -0.6,-1.33 -0.71,-2.89 -0.21,-4.38 0.21,-0.61 0.5,-1.16 0.86,-1.65 l 0.01,0.01 c -0.01,0 -0.01,0 -0.01,0 0,0 1.84,2.07 1.73,3.22 z m 3.13,6.29 0.1,-0.9 c 0.17,0.42 0.3,0.76 0.35,0.88 -0.15,0.01 -0.3,0.01 -0.45,0.02 z m 2.57,-10.01 c 0.06,-0.44 0.13,-0.81 0.19,-1.05 l 0.01,-0.03 c 1.87,1.08 2.99,3.12 2.95,5.26 v 0 c -0.26,-0.04 -2.62,-0.18 -3.28,-1.56 -0.27,-0.59 -0.04,-1.37 0.13,-2.62 z m -0.5,6.14 c 0.74,-0.83 3.38,-0.8 3.53,-0.82 -0.05,0.22 -0.11,0.45 -0.19,0.67 -0.63,1.86 -2.09,3.21 -3.82,3.75 0,-0.26 -0.25,-2.79 0.48,-3.6 z m -0.78,-7.82 c 0.16,0.04 0.31,0.07 0.47,0.13 0,0 0,0 0.01,0 v 0.01 c -0.05,0.07 -0.27,0.43 -0.58,0.85 z m -0.97,4.39 c 0.73,0.25 1.12,1.06 0.87,1.79 -0.25,0.74 -1.04,1.13 -1.77,0.88 -0.73,-0.25 -1.12,-1.06 -0.87,-1.79 0.25,-0.74 1.04,-1.13 1.77,-0.88 z m -0.64,-4.58 -0.31,2.93 c -0.05,0.02 -0.11,0.05 -0.16,0.06 -1.01,0.19 -2.9,-1.19 -3.27,-1.4 l -0.07,-0.05 c 1.04,-0.94 2.39,-1.49 3.81,-1.54 z m -7.73,0.09 c -0.02,-0.09 -0.07,-0.17 -0.13,-0.26 l 0.22,-0.02 c 0.1,0.08 0.23,0.12 0.37,0.11 0.14,-0.02 0.26,-0.09 0.34,-0.19 0.12,-0.01 0.32,-0.04 0.52,-0.06 0.16,-0.02 0.32,-0.04 0.44,-0.06 0.06,-0.01 0.11,-0.01 0.14,-0.02 0.1,0.06 0.21,0.1 0.34,0.08 0.12,-0.02 0.21,-0.08 0.29,-0.16 0.12,-0.03 0.26,-0.07 0.33,-0.08 0.06,-0.01 0.17,-0.03 0.28,-0.05 0.11,0.08 0.25,0.13 0.4,0.1 0.14,-0.03 0.25,-0.1 0.33,-0.21 0.03,-0.01 0.05,-0.01 0.09,-0.02 0.12,-0.02 0.28,-0.05 0.43,-0.09 0.24,-0.05 0.47,-0.1 0.57,-0.12 0.04,0.03 0.09,0.05 0.14,0.06 -0.01,0.04 -0.01,0.08 -0.03,0.13 -0.06,0.29 -0.1,0.37 -0.08,0.43 -0.06,0.03 -0.11,0.06 -0.17,0.08 -0.03,-0.04 -0.09,-0.05 -0.26,-0.13 -0.14,-0.07 -0.23,-0.12 -0.3,-0.16 -0.07,-0.03 -0.1,-0.05 -0.14,-0.03 -0.03,0.02 -0.03,0.04 -0.04,0.09 0,0.05 0,0.12 -0.01,0.24 -0.01,0.3 -0.05,0.38 -0.02,0.44 -0.05,0.04 -0.1,0.07 -0.16,0.11 -0.04,-0.04 -0.1,-0.04 -0.28,-0.09 -0.3,-0.08 -0.4,-0.17 -0.46,-0.11 -0.05,0.04 -0.02,0.11 0.01,0.34 0.03,0.29 0.01,0.38 0.05,0.44 -0.05,0.04 -0.09,0.09 -0.14,0.13 -0.04,-0.03 -0.1,-0.02 -0.29,-0.04 -0.15,-0.02 -0.26,-0.04 -0.33,-0.06 -0.07,-0.01 -0.11,-0.02 -0.14,0.02 -0.04,0.05 0,0.11 0.06,0.33 0.04,0.16 0.06,0.26 0.08,0.33 0.01,0.05 0.02,0.08 0.04,0.1 -0.04,0.05 -0.08,0.1 -0.11,0.15 -0.05,-0.02 -0.1,0 -0.29,0 -0.31,0.01 -0.43,-0.04 -0.47,0.04 -0.03,0.05 0.02,0.11 0.11,0.32 0.12,0.27 0.13,0.36 0.18,0.4 -0.03,0.06 -0.06,0.11 -0.09,0.17 -0.05,-0.02 -0.1,0.01 -0.29,0.05 -0.08,0.01 -0.14,0.02 -0.2,0.03 -0.05,0.01 -0.1,0.01 -0.14,0.02 -0.07,0.01 -0.11,0.02 -0.13,0.06 -0.02,0.06 0.03,0.1 0.15,0.3 0.17,0.25 0.18,0.33 0.24,0.37 -0.01,0.03 -0.02,0.06 -0.03,0.09 -0.01,0.03 -0.02,0.06 -0.03,0.09 -0.05,-0.01 -0.1,0.03 -0.28,0.09 -0.15,0.05 -0.25,0.08 -0.32,0.1 -0.07,0.02 -0.11,0.04 -0.12,0.08 -0.01,0.06 0.04,0.1 0.2,0.27 0.2,0.22 0.23,0.3 0.3,0.32 -0.01,0.06 -0.02,0.13 -0.03,0.19 -0.05,0 -0.09,0.05 -0.26,0.13 -0.14,0.07 -0.23,0.12 -0.3,0.15 -0.07,0.03 -0.1,0.06 -0.1,0.1 0,0.03 0.01,0.05 0.05,0.08 0.04,0.03 0.1,0.08 0.19,0.15 0.23,0.19 0.28,0.26 0.34,0.27 0,0.06 0,0.13 0,0.19 -0.05,0.01 -0.09,0.06 -0.24,0.17 -0.17,0.14 -0.29,0.2 -0.33,0.25 -0.01,-0.01 -0.01,-0.02 -0.01,-0.03 -0.07,-0.14 -0.11,-0.24 -0.15,-0.29 0,-0.29 0,-0.58 -0.01,-0.88 -0.01,-0.31 -0.02,-0.62 -0.04,-0.92 0.02,-0.04 0.07,-0.11 0.11,-0.2 0.1,-0.2 0.16,-0.37 0.14,-0.58 -0.02,-0.16 -0.08,-0.27 -0.21,-0.49 -0.08,-0.14 -0.14,-0.23 -0.18,-0.27 -0.08,-0.6 -0.17,-1.2 -0.29,-1.79 0.01,-0.04 0.05,-0.12 0.08,-0.21 0.07,-0.19 0.12,-0.36 0.07,-0.57 z m -0.13,10.79 c 0.03,-0.04 0.09,-0.09 0.16,-0.16 0.14,-0.17 0.26,-0.31 0.28,-0.52 0.02,-0.16 -0.01,-0.28 -0.09,-0.53 -0.05,-0.15 -0.08,-0.25 -0.1,-0.3 0.02,-0.18 0.03,-0.37 0.05,-0.55 0.18,0.01 0.34,0.02 0.52,0.03 -0.07,-0.29 -0.14,-0.61 -0.19,-0.96 -0.03,-0.2 -0.04,-0.39 -0.05,-0.57 0.1,-0.17 0.18,-0.31 0.18,-0.5 0,-0.08 -0.01,-0.15 -0.03,-0.23 -0.01,-0.03 -0.02,-0.06 -0.03,-0.1 0.04,0.02 0.09,0.05 0.18,0.1 0.15,0.08 0.22,0.14 0.28,0.18 0.04,0.03 0.07,0.04 0.1,0.04 0.01,0.06 0.02,0.13 0.03,0.19 -0.05,0.02 -0.08,0.07 -0.21,0.21 -0.21,0.23 -0.33,0.28 -0.31,0.36 0.02,0.06 0.09,0.06 0.3,0.15 0.15,0.06 0.25,0.1 0.31,0.13 0.05,0.02 0.07,0.03 0.1,0.02 0.02,0.06 0.04,0.12 0.06,0.18 -0.05,0.02 -0.06,0.08 -0.17,0.24 -0.18,0.26 -0.28,0.33 -0.25,0.41 0.02,0.06 0.09,0.05 0.32,0.1 0.29,0.06 0.36,0.11 0.43,0.09 0.03,0.06 0.05,0.12 0.08,0.17 -0.04,0.03 -0.05,0.09 -0.13,0.26 -0.07,0.14 -0.12,0.23 -0.16,0.3 -0.03,0.07 -0.05,0.1 -0.03,0.14 0.02,0.03 0.04,0.03 0.09,0.04 0.05,0 0.12,0 0.24,0.01 0.3,0.01 0.37,0.05 0.44,0.02 0.04,0.05 0.07,0.11 0.11,0.16 -0.04,0.04 -0.04,0.1 -0.09,0.28 -0.08,0.3 -0.16,0.4 -0.11,0.46 0.04,0.05 0.1,0.02 0.33,-0.01 0.29,-0.03 0.38,-0.01 0.43,-0.05 0.04,0.05 0.09,0.09 0.13,0.14 -0.03,0.04 -0.02,0.11 -0.04,0.29 -0.02,0.15 -0.04,0.26 -0.06,0.33 -0.01,0.07 -0.01,0.12 0.02,0.14 0.05,0.04 0.11,0 0.33,-0.06 0.16,-0.04 0.26,-0.06 0.32,-0.08 0.05,-0.01 0.08,-0.02 0.1,-0.04 0.05,0.04 0.1,0.08 0.15,0.12 -0.02,0.05 0,0.1 0,0.29 0.01,0.32 -0.03,0.43 0.04,0.48 0.05,0.03 0.1,-0.02 0.31,-0.11 0.27,-0.13 0.36,-0.13 0.4,-0.19 0.06,0.03 0.11,0.06 0.17,0.09 -0.02,0.05 0.01,0.1 0.05,0.29 0.01,0.08 0.02,0.14 0.03,0.2 0.01,0.05 0.01,0.1 0.02,0.14 0.01,0.07 0.02,0.11 0.06,0.13 0.06,0.02 0.1,-0.03 0.29,-0.16 0.25,-0.17 0.33,-0.19 0.36,-0.25 0.03,0.01 0.06,0.02 0.09,0.03 0.03,0.01 0.06,0.02 0.09,0.03 -0.01,0.05 0.03,0.1 0.09,0.28 0.04,0.11 0.06,0.19 0.08,0.26 -0.04,0.01 -0.08,0.04 -0.12,0.06 l -0.74,-0.04 c -0.08,-0.12 -0.21,-0.2 -0.36,-0.22 -0.14,-0.01 -0.27,0.03 -0.37,0.11 -0.03,0 -0.05,-0.01 -0.09,-0.01 -0.12,-0.01 -0.28,-0.03 -0.44,-0.04 -0.16,-0.02 -0.32,-0.03 -0.44,-0.04 -0.06,-0.01 -0.11,-0.01 -0.14,-0.01 -0.08,-0.1 -0.2,-0.17 -0.34,-0.18 -0.13,-0.01 -0.24,0.03 -0.34,0.1 l -0.6,-0.02 c -0.08,-0.11 -0.21,-0.19 -0.36,-0.2 -0.14,-0.01 -0.27,0.04 -0.37,0.12 l -1.1,-0.09 c -0.08,-0.08 -0.19,-0.14 -0.31,-0.15 -0.14,-0.01 -0.26,0.04 -0.36,0.12 0.14,-0.54 0.27,-1.09 0.38,-1.65 z m -10.71,-19.53 c 0.28,0.26 0.24,0.09 0.35,0.1 0.77,0.12 0.16,0.3 0.54,0.96 0.26,0.43 0.3,0.12 0.37,0.72 0.05,0.46 -0.03,0.63 -0.22,0.84 l -1.15,-1.18 c -0.14,-0.15 -0.34,-0.44 -0.55,-0.72 z m -0.38,2.65 c 0.52,0.11 0.15,0.01 0.59,0.3 l 0.62,0.35 c -0.27,0.68 -0.21,0 -0.29,0.76 0.43,0.36 0.82,0.54 0.9,1.32 l -0.91,0.26 c -0.02,0.82 0.19,2.08 0.95,2.25 1.05,0.24 0.81,-1.29 0.98,-2.16 1.47,-0.35 1.54,1.68 3.07,1.88 -0.69,-2.07 -1.61,-3.91 -2.78,-5.5 l -1.87,-2.28 c -0.11,-0.12 -0.24,-0.25 -0.37,-0.39 l 0.19,-0.21 c 2.58,2.54 4.43,5.63 5.46,9.03 l -0.9,0.12 c -0.1,-0.07 -0.22,-0.1 -0.35,-0.09 -0.14,0.02 -0.26,0.09 -0.34,0.19 l -0.53,0.03 c -0.02,-0.08 -0.03,-0.16 -0.05,-0.25 -0.39,-1.35 -0.89,-0.19 -2.53,0.01 -0.06,0.19 -0.13,0.39 -0.21,0.59 l -0.35,0.04 c -0.1,-0.07 -0.22,-0.11 -0.36,-0.1 -0.13,0.02 -0.24,0.09 -0.32,0.18 l -1.13,0.14 c -0.09,-0.06 -0.2,-0.09 -0.32,-0.08 -0.12,0.01 -0.22,0.07 -0.29,0.15 l -0.65,0.08 c -0.1,-0.07 -0.21,-0.1 -0.34,-0.09 -0.13,0.02 -0.23,0.08 -0.31,0.17 l -1.15,0.14 c -0.1,-0.07 -0.22,-0.11 -0.34,-0.09 -0.12,0.01 -0.23,0.08 -0.3,0.16 l -0.58,0.07 -0.17,0.02 c -0.1,-0.07 -0.22,-0.11 -0.36,-0.1 -0.14,0.02 -0.26,0.09 -0.35,0.2 l -1.08,0.13 c -0.1,-0.07 -0.22,-0.11 -0.35,-0.09 -0.13,0.02 -0.24,0.08 -0.32,0.17 l -0.06,0.01 -0.52,0.06 -0.02,0.01 c -0.1,-0.08 -0.24,-0.12 -0.38,-0.11 -0.13,0.02 -0.23,0.08 -0.31,0.17 -0.02,0 -0.06,0.01 -0.11,0.01 l 8.2,-9.03 c 0.01,0.11 0.01,0.25 0,0.44 -0.03,0.47 -0.21,0.01 0.04,0.61 0.3,0.73 0.4,0.48 0.6,0.52 z m -1.09,-4.76 -11.69,12.87 c -0.04,0.01 -0.08,0.02 -0.11,0.02 -0.36,-0.12 -0.73,-0.2 -1.13,-0.2 -0.43,0 -0.83,0.09 -1.22,0.23 0.02,-0.28 0.01,-0.6 0.1,-0.95 0.37,-1.47 1.92,-3.79 3.2,-4.52 0.91,-0.51 0.19,0.11 0.93,-0.01 0.38,-0.06 0.69,-0.29 0.81,-0.63 -0.13,-0.06 -1.45,0.31 -1.35,-1.41 0.47,-0.21 1.1,-0.29 1.77,-0.3 l -0.03,1.08 c 0.49,0.04 0.74,0.11 1.15,-0.14 -0.08,-0.73 -0.03,-0.18 -0.69,-0.62 -0.07,-1.45 0,-1.19 -0.76,-2.04 -0.37,-0.42 -0.96,-1.07 -1.26,-1.5 -1,0.07 0.04,0.17 -0.91,0.26 -0.47,-0.63 -0.06,-0.65 -0.75,-1.07 -0.01,-0.01 -0.56,-0.28 -0.64,-0.29 -0.49,-0.14 -0.26,-0.19 -0.56,0.04 -0.39,0.4 -0.03,1.85 -0.04,2.12 -0.01,0.48 -0.33,1.54 -0.62,1.83 -0.67,-0.21 -0.55,-0.39 -0.62,-1.21 -1.43,-0.2 -2.36,-1.3 -2.29,-1.86 l 2.02,-2.44 c 0.29,-0.21 0.54,-0.31 0.83,-0.53 0.06,-0.55 0.15,-0.61 -0.1,-1.01 -0.4,0.12 -0.38,0.27 -0.61,0.58 -0.15,-0.12 -0.44,-0.31 -0.57,-0.5 l -0.35,-0.74 c -0.13,0.22 -0.22,0.38 -0.28,0.5 0.22,-0.07 -0.31,0.61 0,0 -0.07,0.02 -0.23,0.13 -0.53,0.39 -0.03,0.04 -0.07,0.08 -0.13,0.15 -0.09,0.11 0.02,0.09 -0.28,0.3 l -1.84,-0.1 c -0.43,-0.38 -0.86,-0.79 -1.68,-0.72 -1.07,0.09 -0.36,0.81 -1.45,0.06 -1.78,0.63 -4.93,2.99 -5.67,4.1 0.07,0.25 0.04,0.49 0.26,0.81 0.31,-0.29 1.55,-1.03 1.95,-1.12 0.59,0.6 0.61,1.16 0.8,2.1 0.51,2.57 0.76,1.33 0.89,2.03 -0.08,0.63 -0.24,0.42 -0.44,1.1 -0.33,1.19 -0.68,2.99 0.13,3.84 1.34,1.42 0.3,1.73 1.59,3.04 l 0.45,0.26 c 1.2,0.46 0.61,1.15 1.89,1.85 0.82,0.45 2.21,0.89 3.27,1.47 0.23,1.41 1.21,2.55 2.51,2.98 -0.29,0.86 -0.44,2.03 0.44,3.34 0.62,0.93 2.74,2.25 1.85,3.82 -0.11,1.25 -0.59,2.67 -0.62,3.78 -0.05,2.02 -0.58,3.39 0.86,3.38 -0.29,-1.64 0.2,-0.75 0.45,-2 0.16,-0.81 0.4,-1.19 0.99,-1.64 0.34,-0.25 0.55,-0.32 0.85,-0.53 0.59,-0.41 0.22,-0.28 0.53,-0.7 l 0.43,-0.35 c 1.8,-1.11 1.25,-1.85 2.03,-2.43 0.69,-0.52 1,-0.08 1.61,-1 0.44,-0.67 1.61,-2.61 1.73,-3.44 0.11,0.02 0.25,0.04 0.39,0.06 0.22,0.03 0.43,0.07 0.55,0.08 0.08,0.09 0.18,0.16 0.31,0.18 0.13,0.02 0.25,-0.02 0.35,-0.08 l 0.06,0.01 c 0,0 0,0 0,0 l 0.51,0.07 h 0.03 c 0.08,0.1 0.19,0.18 0.33,0.2 0.14,0.02 0.28,-0.02 0.38,-0.1 0.12,0.02 0.32,0.04 0.53,0.07 0.22,0.03 0.43,0.06 0.55,0.07 0.08,0.09 0.19,0.16 0.31,0.17 0.13,0.02 0.26,-0.02 0.36,-0.1 l 0.05,0.01 c 0,0 0,0.01 -0.01,0.01 l 0.52,0.07 c 0,0 0,-0.01 -0.01,-0.01 h 0.03 c 0.08,0.11 0.2,0.18 0.34,0.2 0.13,0.02 0.25,-0.02 0.35,-0.09 0.07,0.01 0.33,0.04 0.6,0.07 0.22,0.03 0.44,0.05 0.55,0.06 0.08,0.09 0.19,0.15 0.32,0.17 0.07,0.01 0.14,0 0.2,-0.02 0.05,-0.01 0.09,-0.04 0.13,-0.07 l 0.06,0.01 v 0 l 0.43,0.05 c -0.07,0.33 -0.16,0.65 -0.29,0.98 l -1.7,4.69 0.3,0.17 c 0.7,-0.54 1.84,-2.62 2.28,-3.51 0.36,-0.72 0.67,-1.43 0.94,-2.18 l 0.5,0.06 c 0.02,0.02 0.05,0.04 0.07,0.06 -0.97,2.86 -2.51,5.51 -4.62,7.78 -3.9,4.19 -9.17,6.59 -14.86,6.77 -5.69,0.18 -11.1,-1.9 -15.24,-5.84 -4.14,-3.94 -6.52,-9.27 -6.7,-15.02 -0.17,-5.75 1.88,-11.22 5.77,-15.41 3.9,-4.19 9.17,-6.59 14.86,-6.77 4.98,-0.15 9.76,1.42 13.65,4.46 l -0.28,0.34 c 0,0 0,-0.01 0,0 0,0 0,0 0,0 z m -3.17,12.45 0.05,-0.01 c 0.1,0.09 0.24,0.14 0.39,0.12 0.14,-0.02 0.26,-0.09 0.34,-0.19 l 1.1,-0.13 c 0.1,0.08 0.23,0.12 0.37,0.11 0.15,-0.02 0.27,-0.1 0.35,-0.21 l 0.05,-0.01 c -0.01,0.01 -0.01,0.02 -0.01,0.02 l 0.47,-0.06 c -0.01,-0.01 -0.01,-0.02 -0.02,-0.02 l 0.06,-0.01 c 0.11,0.09 0.25,0.15 0.4,0.13 0.14,-0.02 0.26,-0.09 0.34,-0.19 l 1.1,-0.13 c 0.1,0.06 0.21,0.1 0.33,0.08 0.08,-0.01 0.15,-0.04 0.22,-0.09 -0.42,1 -0.87,2.09 -0.83,2.95 0.04,0.91 0.03,1.46 0.02,1.83 -6.58,-0.36 -9.81,-0.55 -10.62,-0.63 -0.1,-0.58 -0.34,-1.11 -0.68,-1.57 l 1.21,-1.33 c 0.11,-0.02 0.26,-0.03 0.4,-0.05 0.24,-0.03 0.47,-0.06 0.57,-0.07 0.1,0.08 0.23,0.12 0.37,0.1 0.14,-0.02 0.25,-0.09 0.34,-0.19 h 0.05 l 0.45,-0.06 h 0.09 c 0.1,0.08 0.23,0.12 0.36,0.1 0.14,-0.02 0.26,-0.09 0.34,-0.19 l 1.1,-0.13 c 0.1,0.06 0.21,0.1 0.33,0.09 0.13,-0.02 0.25,-0.09 0.33,-0.18 l 0.18,-0.02 0.45,-0.06 c 0.01,0.01 0.01,0 0,0 z m 5.09,9.79 -0.06,-0.01 c -0.08,-0.11 -0.2,-0.18 -0.34,-0.2 -0.14,-0.02 -0.27,0.02 -0.37,0.1 l -1.1,-0.15 c -0.08,-0.08 -0.18,-0.15 -0.3,-0.16 -0.12,-0.02 -0.24,0.02 -0.33,0.08 h -0.01 l -0.54,-0.06 -0.05,-0.01 c -0.08,-0.11 -0.2,-0.19 -0.34,-0.21 -0.14,-0.02 -0.27,0.02 -0.37,0.09 -0.03,-0.01 -0.08,-0.01 -0.13,-0.02 l -0.97,-0.16 c -0.08,-0.1 -0.19,-0.17 -0.32,-0.19 -0.13,-0.02 -0.26,0.01 -0.36,0.08 l -0.52,-0.08 -0.06,-0.01 c -0.08,-0.11 -0.19,-0.19 -0.33,-0.21 -0.07,-0.01 -0.13,-0.01 -0.2,0.01 l -0.94,-0.56 c -0.31,-0.17 -1.19,-1.36 -2.57,-2.24 1.8,0.06 5.35,0.25 10.94,0.6 0.08,0.11 0.15,0.22 0.24,0.34 0.94,0.05 1.15,-0.14 1.54,-0.23 0.21,0.01 0.44,0.03 0.66,0.04 0.67,0.83 0.48,0.77 0.41,2.7 -0.01,0.33 -0.04,0.61 -0.07,0.89 l -0.34,-0.04 -0.16,-0.02 c 0,0 0,0 0,-0.01 -0.04,-0.05 -0.09,-0.1 -0.15,-0.13 -0.06,-0.03 -0.12,-0.05 -0.19,-0.06 -0.14,-0.02 -0.27,0.03 -0.37,0.11 l -1.11,-0.14 c -0.08,-0.09 -0.19,-0.16 -0.32,-0.18 -0.13,-0.02 -0.26,0.02 -0.36,0.1 l -0.33,-0.04 -0.18,-0.02 c 0,0 0,0 0,0 z m -16.45,-9.17 c -0.67,0.33 -1.22,0.86 -1.59,1.52 -1.07,-0.02 -0.79,0.9 -2.13,0.66 -0.53,-0.75 -0.53,-2.33 0.14,-2.91 0.46,-0.39 2.41,-0.51 3.23,-0.39 0.27,0.48 0.17,0.8 0.35,1.12 z m 21.94,9.8 -0.31,-0.03 c 0.14,-0.45 0.27,-0.91 0.39,-1.4 0.16,-0.66 0.29,-1.4 0.39,-2.17 0.18,0.01 0.35,0.02 0.53,0.03 -0.14,1.18 -0.36,2.34 -0.69,3.47 -0.11,0 -0.22,0.03 -0.31,0.1 z m 0.66,-5.86 c 0.08,-2.07 -0.09,-4.18 -0.66,-5.74 -0.7,0.14 -0.26,0.09 -0.83,0.34 -0.18,-0.09 -0.33,-0.17 -0.45,-0.24 h 0.05 c 0.1,0.06 0.21,0.1 0.34,0.08 0.14,-0.02 0.26,-0.09 0.34,-0.19 l 0.99,-0.13 c 0.43,1.6 0.69,3.26 0.74,4.96 0.01,0.32 -0.01,0.64 -0.02,0.96 -0.18,-0.03 -0.33,-0.04 -0.5,-0.04 z m -4.76,14.92 c -4.02,4.32 -9.46,6.8 -15.33,6.98 -5.87,0.18 -11.45,-1.96 -15.72,-6.02 -4.27,-4.06 -6.73,-9.57 -6.91,-15.5 -0.18,-5.93 1.93,-11.57 5.95,-15.89 4.02,-4.32 9.46,-6.8 15.33,-6.98 5.16,-0.16 10.1,1.48 14.12,4.64 l -0.19,0.21 c -3.84,-3.01 -8.7,-4.74 -13.92,-4.57 -11.95,0.37 -21.38,10.5 -21.01,22.59 0.37,12.08 10.39,21.61 22.35,21.24 9.27,-0.29 17.02,-6.45 19.86,-14.85 0.07,-0.01 0.13,-0.05 0.19,-0.08 l 0.06,0.01 c 0,0 0.03,0 0.06,0.01 -1.01,3.02 -2.62,5.82 -4.84,8.21 z m 5.06,-8.95 c -0.1,-0.01 -0.18,-0.02 -0.18,-0.02 0,0 0,0 0,0 l -0.07,-0.01 c -0.01,-0.01 -0.01,-0.02 -0.01,-0.02 0.34,-1.17 0.59,-2.37 0.74,-3.6 0.08,0.01 0.17,0.01 0.26,0.02 -0.16,1.23 -0.4,2.45 -0.74,3.63 z m 0.16,-11.92 c 0.42,1.61 0.68,3.28 0.73,4.98 0.01,0.35 -0.01,0.69 -0.02,1.03 -0.08,0 -0.17,-0.01 -0.25,-0.01 0,-0.33 0.01,-0.67 -0.01,-1.01 -0.05,-1.68 -0.3,-3.31 -0.7,-4.87 0.1,-0.02 0.18,-0.07 0.25,-0.12 z m -0.25,-0.91 c -0.05,-0.01 -0.09,-0.02 -0.14,-0.01 -0.05,0.01 -0.09,0.03 -0.13,0.05 -1.09,-3.52 -3.02,-6.65 -5.56,-9.15 l 0.19,-0.21 c 2.65,2.62 4.57,5.82 5.64,9.32 z m 2.81,-20.21 c -0.04,-0.12 -0.08,-0.24 -0.12,-0.36 l 9.41,-3.64 0.11,0.33 z m 10.3,-4.03 -0.11,-0.32 16.82,-6.51 0.09,0.26 z m 25.45,-9.95 -0.17,-0.12 c -0.06,0.08 -0.11,0.17 -0.17,0.25 l -7.41,2.9 -0.09,-0.26 8.1,-3.14 0.1,0.23 z m 10.28,23.28 3.4,8.03 c -0.73,-0.06 -1.54,-0.04 -1.5,2.18 1.11,0.32 1.76,0.14 2.31,-0.26 l 0.32,0.75 c -0.11,0.02 -0.24,0.04 -0.34,0.07 -1.85,0.56 -1.23,-0.66 -3.07,2.2 -0.22,0.34 -1.94,1.4 -2.16,2.96 -0.39,2.7 0.08,3.66 1.71,5.22 1.65,1.58 0.61,0.41 2.2,0.62 1.08,0.14 0.51,0.09 1.49,-0.09 1.02,-0.19 0.65,0.03 1.2,0.27 0.69,0.08 1.19,0.12 1.64,0.42 0.02,2.17 -0.62,0.71 0.38,2.75 1.35,2.77 -0.41,1.97 0.89,5.69 0.54,1.55 0.36,1.82 0.87,2.7 1.93,0.2 3.65,-1.69 4.52,-2.81 0.68,-0.88 1.51,-2.54 1.95,-3.66 0.21,-0.52 0.27,-0.92 0.65,-1.31 -0.23,-2.08 3.79,-3.43 3.61,-5.41 -1.64,-0.21 -1.37,0.63 -2.86,-1.48 -2.03,-2.88 -1.41,-6.73 -6.23,-6.55 -0.43,0.55 -0.76,1.05 -2.16,0.16 -0.94,-0.6 -0.88,-0.78 -1.22,-1.9 -0.07,0 -0.16,-0.01 -0.24,-0.01 l -0.99,-2.33 c 0.5,-0.13 1.08,-0.15 1.46,0.05 0.44,0.24 1.16,1.12 1.42,1.53 -0.18,0.52 -0.38,0.04 -0.59,0.63 0.5,0.26 1.26,-0.22 1.22,-1.25 -0.51,-0.44 -1.26,-0.73 -1.36,-1.53 0.69,0.02 1.87,1.11 2.07,1.77 0.11,0.34 0.05,0.47 0.2,0.75 0.49,0.98 1.6,0.19 0.74,-0.59 l 0.82,-0.26 c 0.36,0.47 0.52,0.84 0.69,1.55 1.11,0.17 1.54,0.01 2.52,0.11 0.41,1.83 -0.82,1.48 -0.85,2.28 -0.04,1.24 0.41,-0.31 1.44,1.81 l 2.13,4.41 c 1.33,0.04 1.75,-0.47 2.66,-0.9 0.77,-0.36 1.66,-0.93 1.78,-1.89 0.15,-1.2 -0.59,-0.92 -0.77,-1.71 0.04,-0.02 0.09,-0.08 0.11,-0.04 l 1.77,0.2 c 0.4,0.11 0.35,0.02 0.48,0.28 0.79,0.49 0.52,0.4 0.76,0.82 0.47,0.79 0.04,0.1 0.73,0.62 0.18,1.23 0.14,3.23 0.62,4.15 0.9,-1.18 0.79,-4.71 2.21,-4.82 0.29,0.67 0.33,1.66 0.62,2.38 0.7,-1.32 -0.28,-5.95 -0.68,-7.29 -0.63,-2.14 -1.54,-4.01 -2.62,-5.64 -2.09,-3.18 -4.92,-5.75 -8.89,-7.55 -0.08,0.41 -0.09,0.24 -0.13,0.34 l -0.06,0.2 c -0.09,0.31 -0.08,0.4 -0.05,0.42 -0.04,0.02 -0.1,0.06 -0.22,0.17 -0.48,0.52 -0.45,0.14 -1.12,0.45 -0.28,0.13 -0.63,0.38 -0.83,0.54 -0.68,0.55 -0.93,1.05 -1.8,0.05 l 0.44,-0.16 c 0.33,-0.11 0.08,0.08 0.43,-0.15 -0.2,-0.39 -0.12,-0.21 -0.43,-0.45 l -0.41,-0.3 c -0.02,-0.06 -0.07,-0.05 -0.1,-0.09 -0.98,0.15 -0.78,-0.51 -1.93,-0.39 -0.75,0.08 -1.2,0.39 -1.58,0.91 -0.47,0.63 -0.4,0.83 -1.18,1.32 -0.79,0.49 -1.05,0.42 -0.94,1.63 1.17,0.21 1.26,-0.33 1.51,0.98 -0.39,-0.12 -0.42,-0.21 -0.93,-0.16 l -0.15,1.06 c -0.88,0.14 -1.11,0.5 -1.73,0.94 -0.16,0.11 -0.35,0.21 -0.53,0.3 l -0.1,-0.24 c 0.56,-0.05 0.91,-0.27 0.37,-0.97 -0.96,-1.26 0.19,-1.66 -1.14,-1.74 -0.09,0.17 -0.16,0.31 -0.2,0.43 l -1.75,-4.13 c 0.96,-0.37 2.08,-1.09 2.88,-1.63 0.45,-0.3 0.82,-0.41 1,-0.92 -1.36,-0.06 -3.03,0.45 -4.31,0.86 -0.09,0.03 -0.17,0.06 -0.25,0.08 l -0.16,-0.37 c 3.51,-1.25 7.3,-1.57 11.05,-0.85 5.59,1.08 10.42,4.3 13.62,9.05 3.2,4.76 4.37,10.49 3.3,16.14 -1.07,5.65 -4.25,10.54 -8.96,13.77 -4.71,3.23 -10.38,4.41 -15.96,3.33 -5.59,-1.08 -10.42,-4.3 -13.62,-9.05 -3.2,-4.75 -4.37,-10.49 -3.3,-16.14 1.07,-5.65 4.25,-10.54 8.96,-13.77 0.79,-0.54 1.62,-1.01 2.46,-1.43 l 0.33,0.77 c -1.05,0.72 -2.25,1.65 -2.11,2.72 0.69,-0.03 1.38,-0.94 1.98,-1.32 z m 10.89,2.04 c 0.96,0.43 0.95,-0.15 1.58,0.23 -0.31,0.43 -0.33,0.29 -1.06,0.32 0.04,0.36 0.11,0.43 0.05,0.56 -0.17,0.47 -0.1,-0.17 -0.52,0.31 -0.26,0.31 0,0.34 -0.43,0.57 -0.68,0.29 -1.4,0.28 -1.91,0.01 l 0.23,-0.18 c 1.3,-0.84 0.85,-0.32 1.05,-2.57 1.2,-0.89 0.39,-1 1.35,-0.86 -0.19,0.7 -0.6,0.63 -0.34,1.61 z M 167.8,83.46 c 0.33,0.4 0.56,0.88 0.66,1.42 0.13,0.78 -0.04,1.58 -0.48,2.19 -0.56,0.77 -1.47,1.16 -2.4,1.14 0.75,-0.1 1.4,-0.47 1.85,-1.05 0.47,-0.61 0.67,-1.41 0.54,-2.2 -0.07,-0.45 -0.25,-0.86 -0.51,-1.22 0.12,-0.09 0.23,-0.18 0.34,-0.28 z m -4.51,1.53 2.31,-0.91 c 0.4,0.09 0.74,0.03 0.91,0 0.08,-0.02 0.32,-0.07 0.59,-0.18 0.24,0.32 0.41,0.7 0.48,1.1 0.11,0.68 -0.06,1.37 -0.46,1.89 -0.39,0.51 -0.97,0.83 -1.63,0.91 -0.36,0.04 -0.71,0 -1.05,-0.1 z m 1.48,3.52 c 0.29,0.08 0.58,0.12 0.88,0.12 0.23,0 0.45,-0.02 0.67,-0.07 0.81,-0.16 1.51,-0.61 1.97,-1.25 0.5,-0.7 0.71,-1.6 0.55,-2.49 0,-0.03 -0.02,-0.05 -0.02,-0.08 1.41,3.12 2.36,6.41 2.84,9.82 0.48,3.39 0.47,6.81 -0.02,10.19 z m 28.53,60.21 c -4.85,3.33 -10.7,4.55 -16.47,3.44 -5.76,-1.11 -10.75,-4.43 -14.05,-9.34 -3.3,-4.91 -4.5,-10.82 -3.4,-16.64 1.1,-5.83 4.38,-10.87 9.24,-14.2 0.82,-0.57 1.68,-1.05 2.56,-1.49 l 0.11,0.26 c -0.86,0.43 -1.7,0.9 -2.51,1.46 -9.89,6.79 -12.48,20.45 -5.76,30.46 6.72,10 20.23,12.62 30.13,5.82 9.89,-6.79 12.48,-20.45 5.76,-30.46 -5.65,-8.41 -16.1,-11.57 -25.16,-8.34 l -0.11,-0.27 c 3.64,-1.31 7.56,-1.65 11.46,-0.89 5.76,1.11 10.75,4.43 14.05,9.34 3.3,4.91 4.5,10.82 3.4,16.64 -1.11,5.83 -4.39,10.88 -9.25,14.21 z"
     id="path32" /><path
     class="st0"
     d="m 108.48,83.65 c 0.28,0.17 0.6,0.35 0.96,0.49 0.36,0.15 0.75,0.28 1.17,0.37 0.84,0.18 1.8,0.2 2.77,-0.02 0.24,-0.05 0.48,-0.12 0.7,-0.2 0.23,-0.07 0.45,-0.17 0.66,-0.26 0.42,-0.2 0.81,-0.44 1.18,-0.68 0.37,-0.24 0.72,-0.49 1.06,-0.7 0.06,-0.04 0.12,-0.07 0.18,-0.11 -4.75,-0.37 -7.4,-2.66 -8.92,-1.11 -0.55,0.56 -0.63,1.3 -0.65,1.55 0.05,0.05 0.11,0.09 0.17,0.14 0.19,0.18 0.44,0.36 0.72,0.53 z"
     id="path34" /><path
     class="st0"
     d="m 164.96,81.95 c 0.73,0.09 1.4,-0.43 1.49,-1.17 0.09,-0.74 -0.42,-1.41 -1.15,-1.51 -0.73,-0.09 -1.4,0.43 -1.49,1.17 -0.1,0.74 0.42,1.41 1.15,1.51 z"
     id="path36" /><path
     class="st0"
     d="m 166.61,80.69 c -0.03,0.24 -0.12,0.46 -0.26,0.65 0.64,-0.02 1.19,-0.51 1.27,-1.18 0.09,-0.74 -0.42,-1.41 -1.15,-1.51 -0.49,-0.06 -0.95,0.15 -1.23,0.52 0.07,0 0.14,0 0.22,0.01 0.72,0.1 1.24,0.77 1.15,1.51 z"
     id="path38" /><path
     class="st0"
     d="m 98.84,111.74 c 0,0 0,0 0,0 0.3,-0.36 -0.44,0.39 0,0 z"
     id="path40" /><path
     class="st0"
     d="m 108.94,110.4 c -0.76,-0.53 -3.22,-0.97 -4.39,-0.92 l 1.14,1.45 c 0.63,0.72 0.14,1.02 0.49,1.82 0.44,1.02 1.4,2.54 2.63,2.53 0.01,-0.82 -0.33,-1.36 0.01,-2.14 l 0.56,-1.14 c 0.69,-1.07 -0.24,-1.07 -0.44,-1.6 z"
     id="path42" /><path
     class="st0"
     d="m 167.78,145.26 c -0.28,-0.86 -0.79,-1.53 -0.74,-1.8 l 0.51,-1.07 c 0,-0.16 -0.27,-1.13 -0.34,-1.38 -0.18,-0.63 -0.32,-0.39 -0.19,-1.25 0.08,-0.55 0.28,-0.79 0.01,-1.51 -0.41,-1.07 -1.05,-0.95 -1.95,-1.36 -0.29,-0.13 -0.65,-0.44 -1.02,-0.65 -0.68,-0.38 -0.59,-0.28 -0.71,-1.13 -0.07,-0.1 -0.32,-0.64 -0.54,-0.9 -0.37,-0.44 -0.51,-0.32 -0.87,-0.67 -0.32,-0.32 -0.35,-0.63 -0.59,-0.97 -0.51,-0.7 -0.41,-0.09 -0.94,-0.79 l -0.1,-0.25 -0.11,-0.33 c 0,3.39 0.5,4.89 1.91,7.94 2.49,5.39 5.74,7.07 6.36,7.9 -0.05,-0.65 -0.12,-0.35 -0.36,-0.85 -0.11,-0.24 -0.27,-0.74 -0.33,-0.93 z"
     id="path44" /><path
     class="st0"
     d="m 164.07,118.77 c 0.26,-0.75 -0.04,-0.29 0.45,-0.64 0.76,-0.55 1.4,-0.1 1.84,-1.42 0.31,-0.92 0.6,-1.41 0.63,-1.93 -1.17,0.75 -3.53,3.67 -4.08,5.21 1.08,-0.06 0.89,-0.42 1.16,-1.22 z"
     id="path46" /><path
     class="st0"
     d="m 190.67,141.09 c -1.1,0.14 -1.45,1.09 -2.23,1.49 l -0.05,0.19 c -0.14,0.68 -0.4,0.83 -0.31,1.57 1.09,0.03 2.57,-2.1 2.59,-3.25 z"
     id="path48" /></g>
</svg>
